<?xml version="1.0" encoding="UTF-8" standalone="no"?>
<svg
   enable-background="new 0 0 128 128"
   viewBox="0 0 512 512"
   version="1.1"
   id="svg36"
   sodipodi:docname="favicon.svg"
   inkscape:version="1.1 (c68e22c387, 2021-05-23)"
   width="512"
   height="512"
   xmlns:inkscape="http://www.inkscape.org/namespaces/inkscape"
   xmlns:sodipodi="http://sodipodi.sourceforge.net/DTD/sodipodi-0.dtd"
   xmlns:xlink="http://www.w3.org/1999/xlink"
   xmlns="http://www.w3.org/2000/svg"
   xmlns:svg="http://www.w3.org/2000/svg">
  <sodipodi:namedview
     id="namedview38"
     pagecolor="#ffffff"
     bordercolor="#666666"
     borderopacity="1.0"
     inkscape:pageshadow="2"
     inkscape:pageopacity="0.0"
     inkscape:pagecheckerboard="0"
     showgrid="false"
     inkscape:zoom="1.2042912"
     inkscape:cx="90.094486"
     inkscape:cy="325.08748"
     inkscape:window-width="1920"
     inkscape:window-height="1057"
     inkscape:window-x="-8"
     inkscape:window-y="-8"
     inkscape:window-maximized="1"
     inkscape:current-layer="svg36" />
  <defs
     id="defs15">
    <path
       id="d"
       d="M 112.03,111.14 H 21.97 c -3.31,0 -6,-2.69 -6,-6 V 10 c 0,-3.31 2.69,-6 6,-6 h 90.05 v 107.14 z" />
  </defs>
  <clipPath
     id="clipPath19">
    <use
       xlink:href="#d"
       id="use17"
       x="0"
       y="0"
       width="100%"
       height="100%" />
  </clipPath>
  <defs
     id="defs22">
    <path
       id="c"
       d="M 112.03,4 H 22.4 c -3.55,0 -6.43,2.88 -6.43,6.43 v 107.14 c 0,3.55 2.88,6.43 6.43,6.43 h 86.42 v -12.86 h 3.2 V 4 Z" />
  </defs>
  <clipPath
     id="b">
    <use
       xlink:href="#c"
       id="use24"
       x="0"
       y="0"
       width="100%"
       height="100%" />
  </clipPath>
  <linearGradient
     id="a"
     x1="19.096001"
     x2="104.54"
     y1="115.96"
     y2="115.96"
     gradientUnits="userSpaceOnUse">
    <stop
       stop-color="#BDBDBD"
       offset=".0091529"
       id="stop29" />
    <stop
       stop-color="#fff"
       offset="1"
       id="stop31" />
  </linearGradient>
  <g
     id="g873"
     transform="scale(4)">
    <path
       d="M 108.82,124 H 21.97 c -3.31,0 -6,-2.69 -6,-6 V 26.05 c 0,-3.31 2.69,-6 6,-6 h 86.85 z"
       fill="#424242"
       id="path2" />
    <path
       d="M 112.03,111.14 H 21.97 c -3.31,0 -6,-2.69 -6,-6 V 10 c 0,-3.31 2.69,-6 6,-6 h 90.05 v 107.14 z"
       fill="#ffffff"
       id="path4" />
    <path
       d="M 112.03,4 H 22.4 c -3.55,0 -6.43,2.88 -6.43,6.43 v 107.14 c 0,3.55 2.88,6.43 6.43,6.43 h 86.42 v -12.86 h 3.2 V 4 Z"
       fill="#9e9e9e"
       id="path6" />
    <g
       opacity="0.2"
       id="g10">
      <path
         d="m 109.03,7 v 101.14 h -0.2 c -1.66,0 -3,1.34 -3,3 V 121 H 22.4 c -1.89,0 -3.43,-1.54 -3.43,-3.43 V 10.43 C 18.97,8.54 20.51,7 22.4,7 h 86.63 m 3,-3 H 22.4 c -3.55,0 -6.43,2.88 -6.43,6.43 v 107.14 c 0,3.55 2.88,6.43 6.43,6.43 h 86.42 v -12.86 h 3.2 V 4 Z"
         fill="#424242"
         id="path8" />
    </g>
    <path
       d="M 83.84,47.64 H 51.38 c -2.85,0 -5.15,-2.31 -5.15,-5.15 V 30 c 0,-2.85 2.31,-5.15 5.15,-5.15 h 32.46 c 2.85,0 5.15,2.31 5.15,5.15 v 12.49 c 0,2.84 -2.31,5.15 -5.15,5.15 z"
       fill="#e3e3e3"
       id="path12" />
    <rect
       x="12.39"
       y="0.43000001"
       width="17.5"
       height="132.14"
       clip-path="url(#b)"
       fill="#424242"
       id="rect27" />
    <path
       d="M 104.54,120.79 H 23.6 c -2.47,0 -4.5,-2.03 -4.5,-4.5 v -0.64 c 0,-2.47 2.02,-4.5 4.5,-4.5 h 80.94 z"
       fill="url(#a)"
       id="path34"
       style="fill:url(#a)" />
  </g>
</svg>
